Coordinates
version=1
nRows=9
nColumns=36
inDegrees=yes

Units are S.I. units (second, meters, Newtons, ...)
If the header above contains a line with 'inDegrees', this indicates whether rotational values are in degrees (yes) or radians (no).

endheader
time	pelvis_tilt	pelvis_list	pelvis_rotation	pelvis_tx	pelvis_ty	pelvis_tz	hip_flexion_r	hip_adduction_r	hip_rotation_r	knee_angle_r	knee_angle_r_beta	ankle_angle_r	subtalar_angle_r	mtp_angle_r	hip_flexion_l	hip_adduction_l	hip_rotation_l	knee_angle_l	knee_angle_l_beta	ankle_angle_l	subtalar_angle_l	mtp_angle_l	lumbar_extension	lumbar_bending	lumbar_rotation	arm_flex_r	arm_add_r	arm_rot_r	elbow_flex_r	pro_sup_r	arm_flex_l	arm_add_l	arm_rot_l	elbow_flex_l	pro_sup_l
      2.68333330	      7.20244636	     -3.15598357	     -9.20229344	      0.72846803	      0.84255979	     -0.05405888	     16.83078565	      9.36428828	     -0.11533165	     56.79100741	      0.99119006	     29.89442873	    -10.08809432	     -7.49999987	     47.30225288	     -8.05276824	     10.19119682	     24.81085455	      0.43303110	     -0.30583465	     -8.43225991	     -7.49999987	    -18.23491223	     12.70442332	      4.08428310	     63.23897634	     17.30792878	     63.96726031	    122.48128097	     93.73176213	     49.71751261	     28.97764286	     81.06922995	    148.69755240	     83.72593437
      2.70000000	      7.51864957	     -2.77909215	     -9.25768706	      0.72813292	      0.84317725	     -0.05376070	     15.85169288	      8.95507915	      0.22286914	     55.52355414	      0.96906883	     29.38208942	     -9.93832654	     -7.49999987	     46.62593776	     -7.83410513	      9.68301486	     24.61381153	      0.42959205	     -0.51723659	     -8.37193045	     -7.49999987	    -17.99947724	     11.90568248	      3.85936921	     63.05794554	     17.82678773	     63.24594506	    122.50254603	     89.92668471	     50.35325698	     29.36145997	     80.21957517	    148.74925409	     81.02844667
      2.71666670	      7.97669324	     -2.44361889	     -9.25372853	      0.72885442	      0.84962281	     -0.05357532	     14.75487429	      8.56855287	      0.52088560	     54.32330020	      0.94812045	     28.67312350	    -10.08573146	     -7.49999987	     45.61316351	     -7.59426483	      8.96308481	     24.20619083	      0.42247773	     -0.63577485	     -8.07312646	     -7.49999987	    -17.66646053	     11.17313444	      3.74331133	     62.54585727	     17.82250539	     63.31719776	    123.27775645	     88.11715860	     50.63054386	     29.41523777	     78.85047062	    148.75304963	     79.52255609
      2.73333330	      8.10502424	     -2.25232712	     -9.18253983	      0.72854988	      0.85047080	     -0.05349332	     14.12706681	      8.28368163	      0.57557671	     53.48505526	      0.93349031	     28.41584585	     -9.83224289	     -7.49999987	     45.33220002	     -7.47029899	      8.58638089	     24.14983677	      0.42149417	     -0.73972838	     -7.94565807	     -7.49999987	    -17.25390387	     10.76070055	      4.07769359	     62.87103176	     17.41018072	     63.36940994	    123.48717402	     85.93522673	     51.32211575	     29.92258722	     77.62083693	    148.77546781	     77.69803678
      2.75000000	      8.10403835	     -2.05804068	     -9.19665998	      0.72918139	      0.85040657	     -0.05335033	     13.72501385	      8.08623672	      0.68517340	     52.82152614	      0.92190955	     28.34694925	     -9.62124879	     -7.49999987	     45.24543248	     -7.36854663	      8.25831620	     24.21348792	      0.42260509	     -0.87055041	     -8.12370959	     -7.49999987	    -16.40144874	     10.33882885	      4.69797027	     63.01333148	     16.61590687	     62.38474354	    123.74532541	     83.72436032	     50.93364384	     30.17784189	     76.33376888	    148.85839090	     75.93857733
      2.76666670	      8.48503822	     -1.92689330	     -9.28919081	      0.72850419	      0.85799046	     -0.05314643	     12.83420023	      7.99729013	      1.02005455	     51.84386462	      0.90484613	     27.80036129	     -9.97806588	     -7.49999987	     44.64625770	     -7.18745229	      7.84928185	     24.19859757	      0.42234520	     -0.87260874	     -8.18616922	     -7.49999987	    -16.49169294	     10.06797292	      4.81793253	     63.24872788	     16.24560348	     61.61015723	    123.28141238	     85.13312960	     51.42123471	     30.53443883	     75.73017990	    148.81648889	     76.25916575
      2.78333330	      8.80038578	     -1.93200065	     -9.35790674	      0.72887379	      0.86098707	     -0.05272155	     12.13905795	      7.97412884	      1.19369315	     51.07859563	      0.89148967	     27.16051346	    -10.10752096	     -7.49999987	     44.10649565	     -7.13047248	      7.65327020	     24.24433774	      0.42314352	     -0.59203659	     -8.01764752	     -7.49999987	    -16.67357937	      9.94850759	      4.88998391	     63.62933542	     16.12659476	     61.04536091	    122.78735871	     84.43507219	     52.13115454	     30.95523672	     75.44153913	    148.71525917	     75.48197784
      2.80000000	      8.87216567	     -1.74392868	     -9.53226633	      0.72846617	      0.86176468	     -0.05238486	     11.28971755	      7.83332371	      1.68471287	     49.71157547	      0.86763067	     26.80857317	    -10.15406504	     -7.49999987	     43.78647211	     -7.05543041	      7.21776765	     24.08958732	      0.42044261	     -0.50992393	     -7.83276949	     -7.49999987	    -16.45030693	      9.65239174	      5.11960094	     64.09051576	     16.32505262	     59.32576652	    122.33598728	     91.24936021	     52.57243140	     31.24751940	     74.44440518	    148.59047485	     75.68874613
      2.81666670	      8.84373305	     -1.37243901	     -9.71947320	      0.72935283	      0.86785469	     -0.05138955	     10.34668855	      7.62050911	      2.27236759	     47.96147201	      0.83708560	     26.26043441	    -10.57016141	     -7.49999987	     43.24927853	     -6.75531475	      6.63934215	     23.88251581	      0.41682853	     -0.39337614	     -7.89862130	     -7.49999987	    -15.94757616	      9.20175726	      5.27176318	     64.15984944	     16.33038364	     58.47728630	    122.51941462	     91.16350082	     52.02390060	     31.05412887	     74.37871182	    148.58459506	     75.65175371
